<svg viewBox="0 0 1000 600" xmlns="http://www.w3.org/2000/svg" style="width: 300px; height: 300px; justify-content: center; align-self: center; transform: scale(1, 1);"><rect x="-350" y="-150" width="100%" height="100%" fill="transparent" rx="30"></rect><path d="M630.53 304.003c-2.154-18.915.632-58.451.819-60.853 1.18-15.185-5.935-75.148-19.385-69.623-22.563-17.861-52.613-21.805-80.713-23.69-58.367-3.913-120.46 5.072-165.53 44.352-22.289 20.399-43.988 50.068-42.244 80.96-20.25 29.282-48.8 69.449-23.568 103.682 8.576 10.937 22.208 15.01 32.982 23.293 21.672 17.48 35.268 42.566 57.145 59.942 57.96 52.083 156.377 62.963 213.324 3.723 44.034-42.904 36.914-107.09 29.17-161.786-5.208-36.773 2.198 36.901-2 0Z" fill="#FFF"></path><path d="M500.86 65.105c-15.941-.59-31.97 1.37-47.58 4.52-30.981 6.24-62.71 16.45-90.77 31.09-11.783 6.15-22.653 13.745-32.456 22.494-8.861-4.237-22.84-4.58-25.68 5.135-.816 2.79-.41 5.317.76 7.48-.341.193-.678.401-1.008.622-2.235 1.497-3.428 2.586-4.812 3.96l-1.093 1.096c-3.46 3.471-3.787 9.894 0 13.321l.518.468.319.278c.645.542 1.337 1 2.06 1.38-13.271 20.339-22.279 43.517-26.008 67.737-2.191 14.22-2.83 28.44-1.18 42.75.8 6.99 2 14.45 4.449 21.06 1.191 3.23 2.87 6.37 4.38 9.47 1.641 3.38 4.33 5.85 6.54 8.87.24.31.62.47.99.48a72.666 72.666 0 0 0-1.849 4.17c-3.271 7.99-5.79 16.6-7.25 25.11-2.75 16.05-1.07 34.1 11.149 46.11 4.87 4.78 12.41 8.61 19.821 9.63-2.371 2.44-4.281 5.34-5.81 8.68-2.86 6.23 1.909 14.66 9.489 12.34 1.441-.44 2.87-1 4.271-1.62 2.179 4.33 6.84 7.26 11.84 6.51 2.91-.44 5.01-1.57 6.45-3.16 3.61 7.98 8.399 15.23 14.47 21.63 6.419 6.78 13.51 12.89 19.91 19.69 6.22 6.6 9.91 15.22 17.24 20.66 2.279 1.69 5.77-.11 6.41-2.61 2.485-9.73-4.208-17.83-10.558-24.52l-.802-.84c-6.81-7.08-14.68-12.99-21.93-19.59-7.53-6.86-13.591-14.14-19.05-22.74-.473-.74-.943-1.495-1.415-2.258l-2.145-3.482c-.111-.51-.231-1.01-.37-1.5-.111-1.97-.77-3.84-2.04-5.56-1.571-2.13-3.67-3.74-6.01-4.49-.79-.84-1.611-1.64-2.47-2.38 1.07-1.17 2.01-2.55 2.81-4.15 1.48-2.98-.25-7.72-4.21-7.33-1.19.114-2.358.06-3.526.006-1.277-.06-2.553-.118-3.854.044-.312.039-.623.08-.934.12-2.137.284-4.27.566-6.427.27-4.429-.63-8.399-3.03-11.279-6.39-7.211-8.4-7.971-20.48-6.461-30.96.667-4.68 1.808-9.277 3.02-13.85l1.874-7.004c1.067-3.914 2.354-7.97 4.867-11.156 7.886-10.001 21.398-2.153 29.485 3.867l.735.553c.07.05.13.07.2.07.43.7.89 1.39 1.37 2.05 2.649 3.58 5.859 6.76 9.17 9.76l.675.616c.453.409.911.814 1.365 1.214 3.87 3.41 9.11.9 9.62-3.98.949-9.2.69-18.5 1.279-27.74.59-9.25 1.651-18.47 3.231-27.6 1.58-9.12 3.62-18.15 6.11-27.05 1.25-4.46 2.62-8.87 4.079-13.26 1.111-3.38 1.941-8.86 4.87-11.21 2.651-2.14 7.641-2.5 10.891-3.19 4.54-.97 9.109-1.83 13.659-2.8 8.511-1.83 17.011-3.82 25.391-6.18 8.3-2.34 16.53-5.1 24.5-8.42-2.29 3.84-4.56 7.69-6.81 11.55-3.08 5.29.959 10.94 6.55 11.41 5.74.48 11.55.05 17.149-1.31 1.191-.29 2.281-.62 3.291-1.01 6.15-.441 12.425-1.844 18.203-3.268l2.697-.672c10.979-2.76 21.529-6.53 31.93-10.98a284.927 284.927 0 0 0 3.497-1.523 137.059 137.059 0 0 0 12.73-4.536c15.444 2.337 31.198 1.43 46.372-2.301 6.551-1.61 13.671-3.63 20.441-6.43 3.37 5.75 8.54 10.41 14.309 13.79.631 4.99.981 10.03 1.211 15.03.739 15.94 1.579 31.88 2.449 47.81l.28 5.158c1.645 30.957 2.653 61.963 2.89 92.952.221 28.24-1.509 56.12-16.809 80.68-12.89 20.72-33 37.21-56.35 44.61-14.34 4.54-29.54 6-44.51 4.55-7.31-.71-14.55-2.38-21.541-4.62l-1.005-.317c-7.019-2.166-13.703-3.236-21.024-4.123-4.841-.59-6.011 5.69-3.58 8.64 5.14 6.22 10.63 10.37 18.269 13.19 6.901 2.54 14.22 4.15 21.491 5.2 15 2.16 30.13 1.92 44.95-1.47 27.5-6.28 51.809-22.8 68.74-45.21 18.59-24.61 24.579-54.03 24.97-84.34.421-32.434-1.188-65.024-3.33-97.404l-.45-6.696c-.96-14.01-1.98-28.07-3.57-42.05 2.63.26 5.39-.56 7.63-2.81 4.364-4.364 5.397-11.081 5.916-17.147l.134-1.673c.42-5.59-.43-11.31-1.96-16.68-2.108-7.354-5.642-13.546-10.634-18.731 6.686-7.206 10.287-17.405 11.081-27.033.573-6.938 1.106-16.057-6.55-19.29-1.512-.639-3.077-.875-4.651-.842.404-2.47.677-4.972.83-7.503.245-4.024-3.884-8.435-8.017-8.019-1.256.127-2.512.262-3.768.393a219.086 219.086 0 0 1 2.279-3.585c3.254-4.977-1.144-10.526-6.283-10.95-13.659-1.13-27.179-3.93-40.21-8.174-13.093-4.264-26.769-8.555-39.203-14.49-.878-.419-1.846-.109-2.448.495-10.463-6.974-25.653-8.035-37.647-8.514l-1.229-.048ZM323.99 329.033c-4.643-2.16-10.931-5.083-15.76-3.507-2.21.72-2.86 3.06-1.86 4.78h-.08l.207.33c.918 1.399 2.096 2.347 3.388 3.247l.604.413c-1.62 1.15-2.86 2.81-3.4 4.93-.869 3.37.54 7.51 3.74 9.2a9.853 9.853 0 0 0 4.12 1.11c2.046.09 3.752-.852 5.3-2.03l.46-.36c.681-.54 1.231-1.26 1.67-2.04 3.731 4.82 6.87 10.51 13.46 10.69 3.15.09 6.71-2.42 7.36-5.61.071-.31.13-.62.191-.92.61-2.99.17-6.49-2.28-8.63-4.92-4.28-10-8.33-15.97-11.07-.37-.17-.754-.35-1.15-.533Z" fill-rule="evenodd"></path><path d="M449.925 262.674c9.822-10.022 35.434-19.72 42.153-1.213 1.28 3.525-1.445 8.278-5.115 9.01-3.316.659-6.426.16-9.55-.34-2.538-.407-5.086-.816-7.762-.606-4.833.381-9.874 1.996-13.738 4.99-10.702 8.292-13.056 22.317-20.513 32.871-.363.514-1.068.298-1.135-.308-1.698-15.365 4.902-33.428 15.66-44.404Zm148.546-9.929c-6.552-2.042-13.933-2.239-20.45.063-3.149 1.112-6.016 2.593-8.643 4.643-2.588 2.02-3.702 4.075-5.635 6.58-.387.501.251 1.193.794 1.032 10.201-3.016 24.094-.977 32.567 5.423 3.585 2.71 6.542 6.397 8.268 10.565 2.613 6.31 3.53 12.255 11.078 14.44 3.373.976 7.1-.084 9.57-2.53l.615-.61.208-.21c4.596-4.806 2.402-11.561-2.733-14.526-.949-1.775-1.827-4.756-2.662-6.199-1.572-2.723-3.532-5.28-5.65-7.599-4.668-5.106-10.727-9.014-17.327-11.072Zm-8.435 42.836c16.656-.78 27.017 17.406 23.187 32.307-.662 2.571-3.538 5.095-6.314 4.806l-.7-.064a6.168 6.168 0 0 1-1.04-.17c-2.636-.73-4.999-3.472-4.807-6.314l.051-.828c.388-7.04-.375-15.15-8.74-16.854-7.095-1.446-11.056 5.383-11.14 11.669-.016 1.116-1.27 1.895-2.257 1.295-5.129-3.121-6.017-9.33-4.058-14.677 2.483-6.775 8.697-10.837 15.818-11.17ZM497.5 312.614c-5.87-10.716-18.946-17.177-31.067-13.133-6.606 2.203-11.84 7.798-14.533 14.09-2.053 4.793-3.088 13.17 2.67 15.952.765.37 1.529.28 2.166-.279 5.422-4.756 5.198-12.92 12.928-15.618 6.617-2.31 13.88 2.044 15.67 8.643l.068.231c1.576 5.105 8.676 7.225 12.468 3.078 2.424-2.65 3.046-4.855 3.459-8.35.286-2.43-1.77-4.018-3.83-4.614Zm86.714 26.354c-1.95-22.085-32.74-14.902-45.013-7.874-.849.486-.526 2.002.521 1.922 2.441-.186 4.865-.515 7.29-.844 4.14-.56 8.275-1.121 12.483-.97 4.47.162 11.605 1.074 13.282 6.066 1.895 5.643-4.215 9.954-8.798 11.3l-.266.078c-4.247 1.23-12.258 3.133-16.064.55-7.406-5.03-15.311 5.978-9.35 12.118 7.16 7.377 21.827 3.535 30.102.133l.331-.139c8.823-3.757 16.378-12.177 15.482-22.34Zm-106.867 33.508c12.66-1.537 25.035.925 37.391 3.382 4.373.87 8.744 1.74 13.125 2.431 8.848 1.396 17.707 2.438 26.66 2.826 1.801.078 3.604.124 5.406.161.167-1.586 1.055-3.043 2.98-3.916 3.943-1.787 7.1-2.593 11.43-2.42 3.962.156 7.94.563 11.842 1.277 7.087 1.3 14.205 4.248 19.39 9.371 11.996 11.853 10.17 30.892.9 43.802-19.152 26.678-54.107 27.916-84.045 27.568l-2.762-.036c-3.048-.044-6.243-.032-9.531-.019h-.012c-26.115.1-58.103.222-69.101-27.32-4.554-11.405-3.922-24.624 1.654-35.563 6.651-13.047 20.65-19.842 34.673-21.544Zm38.133 16.008-3.41-.383-.84-.096c-9.193-1.049-18.381-2.097-27.575-1.467a54.614 54.614 0 0 0-4.158.45c1.674 6.041 1.534 13.137 2.233 19.118.27 2.313.612 4.607.99 6.892l1.644-.077c10.165-.55 20.34-.89 30.513-1.294 0-1.91.01-3.82.04-5.733l.038-1.912c.034-1.429.03-2.91.027-4.42-.007-3.65-.015-7.46.498-11.078Zm17.648 1.18c9.745-.013 20-.354 29.921-1.955.414.3.851.56 1.312.75l.392.141c-.523 4.594-.893 9.208-1.23 13.823l-.494 6.921-1.764.094a6903.563 6903.563 0 0 1-37.508 1.815l-.426-3.6a550.581 550.581 0 0 1-1.3-12.362c-.19-2.042-.322-4.137-.575-6.207 3.888.345 7.779.584 11.672.58Zm-76.768 10.91c3.94-7.09 11.273-10.965 19.02-12.799-1.893 5.868-1.984 13.172-2.165 18.99l-.102 3.048a304.82 304.82 0 0 0-.086 3.576c-6.629.24-13.29.528-19.837 1.29-.198-4.913.831-9.899 3.17-14.106Zm110.998-11.147c.546 6.525.85 13.077 1.251 19.614l8.241-.44c1.374-.075 2.747-.152 4.12-.23 1.484-.086 3.086-.273 4.738-.466 4.295-.5 8.932-1.04 12.745.05.403-4.8-.969-9.477-5.3-12.7-7.606-5.665-17.289-3.648-25.795-5.828Zm29.227 25.85c-3.226.761-6.813.753-10.232.745-1.514-.003-2.995-.006-4.397.057-4.278.195-8.557.364-12.835.537.201 2.921.398 5.84.612 8.76.275 3.771.301 7.758 1.023 11.514 8.61-2.938 16.324-7.65 22.112-15.185a29.177 29.177 0 0 0 3.717-6.428Zm-34.334 1.627.244-.01c-.177 2.498-.359 4.995-.528 7.494-.27 4.023-.206 8.343-.906 12.398-.702.586-1.23 1.442-1.412 2.714l-.02.216c-9.952 1.775-20.459 1.964-30.221 1.887-.11-.237-.22-.475-.372-.71a3.828 3.828 0 0 0-1.667-1.446l.06-.42c.115-.72-.124-1.72-.34-2.624-.101-.425-.198-.828-.25-1.17-.384-2.53-.753-5.064-1.098-7.599a501.54 501.54 0 0 1-1.199-9.682c12.575-.223 25.141-.563 37.71-1.048Zm-107.004 7.364c-.915-2.207-1.526-4.578-1.84-7 6.46.648 13.041.787 19.578.848.022 5.84.314 11.685 1.128 17.435.326 2.313 1.618 3.663 3.246 4.225-9.38-1.833-18.245-6.184-22.112-15.508Zm59.69-6.145c-9.058.154-18.12.273-27.177.162l-4.112-.063c.868 4.658 1.813 9.3 2.598 13.99.82 4.886-3.482 7.993-7.205 7.868.418.068.835.14 1.253.198 9.67 1.368 19.65 1.297 29.523 1.226 2.003-.014 4.001-.028 5.992-.03-.456-2.66-.452-5.566-.449-8.138.002-1.012.003-1.972-.024-2.846l-.018-.479c-.18-3.965-.307-7.926-.38-11.888Z" fill-rule="evenodd"></path><path d="M589.813 262.11c8.133-1.818 77.696-10.307 79.652 11.863 1.562 3.56 1.128 22.601-5.614 16.96-17.079 12.877-12.152 37.581-24.577 53.951-16.477 23.585-71.228 20.839-78.219-47.198-6.94-2.77-13.056-1.675-19.304-.555-2.816.504-5.658 1.014-8.616 1.176 9.617 72.224-107.638 102.614-116.83 14.563-1.339-11.403-4.788-10.393-14.946-13.66-1.829-.385-3.92-.75-5.924-1.327-3.333 1.11-5.128-.476-7.764-2.805-7.742-6.841-22.74-20.095-105.296 9.705-.089 4.604-3.308 6.878-6.53 4.643-21.228-29.015 82.556-36.852 105.29-36.03 4.427-1.273 8.605-1.996 12.041-.648 18.152-14.6 104.741-22.82 130.454 5.842 17.133 5.39 31.576-1.407 46.181-8.28 6.55-3.082 13.131-6.18 20.002-8.2Zm51.478 9.346-.032.037c-.077-.047-.153-.095-.232-.14.087.035.18.066.264.103Zm-16.306 75.94c-15.008 7.227-35.946-3.434-46.037-14.6-3.673-4.067-6.507-15.7-5.094-23.078 3.827-19.98 18.207-31.973 33.388-36.068 21.044-5.678 42.222 8.706 39.753 25.68-2.34 16.087-5.888 39.422-22.01 48.065Zm-141.74 8.098c20.9-5.647 38.386-24.706 39.59-46.48.46-9.237-2.242-18.36-8.852-24.68-22.582-7.165-67.795-11.613-86.378 14.482-4.725 6.634-2.964 14.368-2.215 16.902 7.538 25.501 24.18 49.172 57.854 39.776Z" fill-rule="evenodd"></path></svg>