<?xml version="1.0" standalone="no"?>
<svg viewBox="-350 -150 1500 1500" style="width: 300px; height: 300px; justify-content: center; align-self: center; transform: scale(1, 1);" xmlns="http://www.w3.org/2000/svg"><rect x="-350" y="-150" width="100%" height="100%" fill="transparent" rx="30"></rect><g transform="rotate(0 408.51788902282715 605.8098602294922)"><g transform="translate(0 459)"><path d="M778.244 749.543C797.57 748.61 789.797 714.805 788.41 702.39C773.109 657.046 776.706 607.574 770.688 560.046C766.939 515.678 762.122 471.448 758.07 427.114C750.112 337.12 692.965 153.916 627.75 124.453C619.535 88.4068 585.604 54.7586 542.674 54.7586C513.394 20.0996 478.151 -4.29271 432.948 0.63229C414.268 1.48229 396.152 21.2943 378.253 25.1203C368.231 26.5023 279.291 22.9453 261.475 33.5263C249.065 39.8983 237.862 51.6733 241.511 66.6643C247.333 84.8263 229.24 65.1743 191.497 84.5593C114.534 130.782 160.524 192.619 162.562 194.535C114.534 261.358 72.5551 315.57 53.1321 397.247C40.5441 457.886 41.9611 520.485 31.4141 581.435C27.6901 602.569 21.9771 622.98 15.7951 643.503C9.09505 670.362 5.83721 737.306 2.14421 737.904C-4.58279 739.575 6.03205 753.387 13.1601 753.398C210.784 786.179 411.522 754.756 610.208 749.622C666.201 747.675 722.254 747.226 778.244 749.543Z" transform="translate(12.50415 -33.85719)" fill="#FFFFFF" stroke="none"></path><path d="M307.855 2.4589L307.101 2.58547C295.271 4.59142 282.709 7.69826 272.682 14.5299C263.284 20.9319 258.076 29.7199 253.737 39.9729L253.581 40.3424C250.197 48.3883 246.334 59.0025 237.322 61.9649C233.114 63.3473 228.493 63.2797 223.988 63.2138C222.432 63.191 220.89 63.1684 219.383 63.2059C213.199 63.3589 206.996 64.1349 201.161 66.2609C178.491 74.5199 162.849 94.8779 156.822 117.79C153.086 131.993 152.635 147.159 154.503 161.686C155.301 167.896 157.897 174.697 163.471 178.174C165.293 179.31 167.277 179.934 169.209 180.018C147.699 202.008 128.456 226.143 110.935 251.506C96.5071 272.393 82.7451 293.942 71.7051 316.836C59.5801 341.981 51.5401 368.321 47.2671 395.897C42.9381 423.83 41.5171 452.06 39.1441 480.196C36.8581 507.315 32.6171 533.833 26.2981 560.305C19.1281 590.339 10.5571 620.108 5.00309 650.506C2.17909 665.96 0.172089 681.582 0.016089 697.307C-0.138911 712.796 0.758089 729.109 5.69609 743.866C7.28009 748.6 11.6581 751.851 16.7541 751.086C21.1851 750.419 26.1371 746.219 25.4921 741.187C23.8091 728.052 21.7231 715.071 21.5031 701.796C21.2841 688.598 22.2531 675.327 23.8641 662.235C26.8818 637.726 32.9411 613.781 38.8117 589.837L40.3591 583.498C46.8471 556.762 52.5511 529.976 55.4461 502.585C58.2691 475.878 59.1211 449.011 61.6471 422.279C64.1921 395.354 68.8771 368.681 78.5101 343.316C87.265 320.265 99.6124 298.732 112.669 277.871L114.414 275.094C137.391 238.648 163.693 204.228 194.565 174.086C211.398 157.65 229.53 142.316 248.664 128.625C258.603 121.513 268.698 114.628 279.099 108.206C286.55 103.605 294.185 99.3049 301.704 94.8199C305.695 97.1379 309.428 100.968 312.048 103.425L314.626 105.867C319.76 110.774 324.767 115.803 329.893 120.717C341.723 132.058 353.196 143.739 365.359 154.735C377.005 165.263 389.507 175.16 403.066 183.12C410.05 187.219 417.373 190.714 424.932 193.622C431.202 196.034 441.728 199.775 446.99 193.984C450.11 191.806 451.223 187.676 448.559 184.44C445.562 177.677 435.143 176.09 428.744 173.569C421.283 170.632 414.17 166.683 407.398 162.414C394.461 154.257 382.785 144.378 371.398 134.211L369.046 132.104C356.11 120.481 343.349 108.636 328.851 98.9469C323.804 95.5729 317.429 91.2979 310.936 89.1229L312.398 88.1889C312.916 87.8509 312.6 86.9759 311.965 87.1609C310.689 87.5319 309.418 87.9229 308.148 88.3269C302.196 86.9439 296.292 87.6819 291.363 92.8679C290.954 93.2979 291.469 93.9479 291.987 93.6769C293.17 93.0619 294.393 92.8159 295.633 92.8419C279.984 99.1169 264.872 107.417 250.545 115.795C231.773 126.771 213.948 139.544 197.399 153.637C190.76 159.292 184.328 165.158 178.076 171.198C177.287 169.175 174.973 167.855 172.442 168.206C171.303 168.364 169.069 161.781 168.827 159.974C168.069 154.323 168.098 148.412 168.301 142.723C168.697 131.549 170.696 120.093 175.383 109.875C183.123 92.9999 198.68 79.2099 217.708 77.6809C228.515 76.8139 239.85 77.5959 249.275 71.2129C256.552 66.284 260.754 58.8084 264.073 50.9261L264.511 49.8729C267.783 41.8919 271.186 33.2229 278.02 27.6029C285.17 21.7238 294.466 19.0659 303.368 16.8945L305.898 16.2849C330.616 10.3786 355.677 10.9613 380.816 11.9458L388.757 12.2629C388.986 12.2729 389.079 11.9339 388.875 11.8269C364.204 -1.1861 334.85 -2.0251 307.855 2.4589ZM399.76 23.7801C393.622 22.0941 387.33 25.8471 385.547 31.8501C383.705 38.0461 383.895 45.1551 383.236 51.5901C382.919 54.6995 383.123 57.8131 383.326 60.9192C383.469 63.1015 383.612 65.2802 383.574 67.4511C380.231 63.8771 376.848 60.3481 373.332 57.0011C372.428 56.1401 371.274 57.2191 371.713 58.2501C378.911 75.1751 390.454 90.9031 402.132 104.969C414.137 119.43 427.664 132.611 441.883 144.887C448.857 150.908 456.055 156.664 463.401 162.225L464.174 162.807C471.923 168.606 480.161 173.64 490.284 172.117C498.934 170.815 505.966 165.543 512.443 159.977L513.703 158.885C520.913 152.598 527.838 145.97 534.422 139.03C547.676 125.061 559.6 109.662 570.06 93.5021C570.181 93.315 570.303 93.1276 570.425 92.9399C572.897 89.1386 575.456 85.2033 574.127 80.4281C573.486 78.1261 572.12 76.5591 570.401 75.6991C569.992 75.1811 569.517 74.6791 568.957 74.2041L568.857 74.1151C568.433 72.9601 568.02 71.8031 567.621 70.6401C566.966 68.8191 566.296 67.0081 565.594 65.2041C564.086 61.3261 562.598 57.4381 560.975 53.6061C559.425 49.9461 557.893 46.2731 556.293 42.6341L556.156 42.3193C554.841 39.2874 553.892 36.5844 550.811 34.9701C550.644 34.8831 550.373 34.8781 550.242 35.0431C548.077 37.7878 548.14 40.9699 548.207 44.2948C548.209 44.4248 548.212 44.5549 548.214 44.6853L548.229 45.7651C548.258 51.1201 548.274 56.4721 548.483 61.8231C548.54 63.2807 548.538 64.9084 548.537 66.6317C548.532 73.9061 548.525 82.884 552.868 87.9571C550.542 91.4671 548.153 94.9361 545.686 98.3471C534.575 113.699 521.866 127.977 508.141 141.036L507.851 141.313C502.313 146.641 495.031 155.2 486.971 155.94C483.654 156.245 480.591 154.478 477.845 152.68L476.353 151.691C472.351 149.039 468.458 146.207 464.595 143.359C447.626 130.843 432.234 116.708 417.082 102.093C411.929 97.1238 406.918 92.0036 401.937 86.8559L395.543 80.2321C393.683 78.3061 391.843 76.3463 390.009 74.3746L386.343 70.4221C389.67 65.1641 394.434 60.9491 397.7 55.5961C401.236 49.8031 405.43 44.3681 407.83 37.9941C410.029 32.1531 405.385 25.3261 399.76 23.7801ZM563.599 43.1334C571.711 40.3194 581.853 42.8734 589.786 45.3314C598.624 48.0714 606.791 53.1174 613.793 59.1104C621.18 65.4304 627.285 73.2344 631.598 81.9524L632.01 82.7923C635.949 90.8792 640.436 101.981 638.45 110.865C638.393 111.117 638.328 111.36 638.254 111.595C654.349 119.518 669.213 129.442 682.157 142.02C697.229 156.665 709.991 173.33 720.791 191.334C763.684 262.842 771.234 348.722 776.3 430.271L777.563 450.948C780.314 495.597 783.533 540.14 791.896 584.172L792.506 587.351C794.379 597.012 796.421 606.688 798.468 616.383C806.188 652.959 813.968 689.819 812.944 727.202C812.555 741.372 791.613 741.276 791.006 727.202C788.72 674.229 776.358 623.083 767.987 570.938C753.258 479.197 760.638 384.617 739.768 293.795C731.578 258.153 718.891 223.58 700.774 191.765C691.825 176.048 681.586 160.861 669.592 147.302C659.273 135.635 648.548 124.407 636.489 114.599C632.635 118.459 624.936 116.492 622.924 110.865C621.542 106.998 621.945 102.477 621.058 98.4264C620.235 94.6674 619.1 90.9404 617.588 87.4004C614.574 80.3454 610.15 73.5704 605.043 67.8604C599.526 61.6884 593.185 56.5604 586.09 52.3264C578.946 48.0634 571.133 46.7904 563.599 43.6754C563.345 43.5704 563.321 43.2304 563.599 43.1334ZM490.625 187.576C490.531 186.673 489.311 186.671 489.219 187.576C487.291 206.218 485.146 224.758 483.806 243.456C482.496 261.739 481.319 280.017 480.773 298.338C479.675 335.252 479.661 372.181 478.995 409.1C478.268 449.36 477.938 489.613 478.327 529.858L473.318 530.22C444.972 532.364 416.602 534.242 388.23 536.072L356.312 538.123C355.902 538.149 355.743 538.545 355.847 538.838C355.408 538.976 355.025 539.287 354.926 539.741C353.481 546.311 353.493 553.189 352.142 559.83C350.721 566.828 348.661 573.77 346.147 580.452C341.126 593.8 333.966 606.494 325.588 618.01C317.207 629.53 307.297 640.17 296.502 649.464C290.801 654.372 285.214 659.169 281.403 665.786C277.683 672.246 275.799 679.485 274.075 686.677L263.584 730.777C263.384 731.62 263.163 732.475 262.94 733.339C261.672 738.249 260.332 743.441 262.254 748.233C265.149 755.453 273.299 758.382 279.451 752.774C286.045 746.764 286.557 734.615 288.361 726.285L294.039 700.059L294.209 699.262C295.661 692.334 296.682 684.792 299.625 678.344C302.506 672.029 307.889 667.048 312.581 662.09L313.231 661.401C333.123 640.231 350.589 614.626 357.36 586.038C359.25 578.058 360.355 569.952 360.434 561.746C360.503 554.591 360.234 546.083 357.41 539.416C357.367 539.314 357.303 539.237 357.238 539.16C396.265 539.526 435.282 539.356 474.309 539.186C475.683 539.181 477.057 539.162 478.432 539.153C478.808 569.316 479.598 599.475 480.956 629.626C482.828 671.211 484.716 712.829 487.578 754.358C487.785 757.371 492.056 757.377 492.265 754.358C494.806 717.481 496.595 680.523 498.258 643.597L498.873 629.942C500.232 599.599 501.489 569.26 501.594 538.884C511.992 538.707 522.389 538.47 532.791 538.178C542.703 537.9 552.611 537.537 562.52 537.152C567.144 536.974 571.768 536.791 576.392 536.604C581.293 536.407 585.626 536.566 588.447 532.015C589.67 530.042 589.012 527.882 587.7 526.22C584.88 522.646 580.543 523.022 576.401 523.381C575.73 523.44 575.064 523.497 574.411 523.538L567.475 523.963L550.628 524.985C544.021 525.388 537.414 525.797 530.808 526.224C521.071 526.852 511.339 527.501 501.608 528.175C501.468 456.22 501.138 384.245 499.478 312.308C499.002 291.653 498.014 271.049 496.537 250.44C495.352 233.913 493.718 217.495 492.02 201.045L490.625 187.576ZM699.227 238.384C699.29 237.426 700.706 237.411 700.727 238.384C700.906 246.624 701.078 254.864 701.249 263.105C702.625 329.507 701.777 396.066 708.439 462.24C711.581 493.441 717.367 524.183 724.062 554.797C727.488 570.462 731.082 586.09 734.497 601.757C737.825 617.026 741.394 632.369 744.034 647.78C746.628 662.926 748.952 678.189 749.995 693.53L750.123 695.532C750.208 696.94 750.354 698.474 750.507 700.08C751.161 706.949 751.94 715.141 748.623 720.48C744.189 727.616 735.7 727.744 730.949 720.932C727.651 716.204 727.398 708.755 727.171 702.109C727.091 699.765 727.015 697.521 726.809 695.532C726.008 687.759 725.161 679.98 724.199 672.225C722.322 657.098 719.849 642.005 717.277 626.981C711.92 595.693 704.15 564.799 698.415 533.561C692.537 501.552 688.359 469.314 688.183 436.724C688.064 414.378 689.634 392.061 691.204 369.756C691.942 359.255 692.681 348.757 693.243 338.259C695.027 304.951 697.055 271.668 699.227 238.384ZM189.527 401.641C189.187 399.591 191.766 398.321 192.955 400.196C206.546 421.618 213.099 444.887 215.861 469.956C218.301 492.081 217.582 514.525 216.367 536.708C215.071 560.368 213.559 584.022 212.03 607.669L209.681 643.932L203.786 734.841C203.364 741.344 201.888 747.257 196.289 750.28C195.58 750.872 194.841 751.403 193.98 751.863C190.955 753.48 186.943 752.663 185.194 749.559L185.895 750.02C186.506 750.405 185.82 749.868 183.837 748.411L182.154 746.233C180.931 744.395 180.15 742.588 179.836 740.403C179.474 737.887 179.728 735.191 179.974 732.575C180.06 731.66 180.145 730.756 180.202 729.872L184.066 670.26C187.071 623.917 190.58 577.587 193.225 531.22C194.457 509.61 195.32 487.979 194.736 466.331C194.154 444.803 193.057 422.91 189.527 401.641ZM595.836 533.129C595.566 532.88 595.127 533.056 595.115 533.428C594.93 539.644 598.101 546.787 600.836 552.947C601.431 554.287 602.005 555.58 602.519 556.806L603.013 557.98C605.993 565.024 609.245 572.075 613.303 578.555C618.047 586.131 623.312 593.39 629.149 600.16C634.652 606.543 640.847 612.076 646.809 618.003C652.727 623.887 656.334 630.017 658.227 638.139C660.374 647.362 661.316 656.935 662.476 666.321L662.977 670.446C663.961 678.696 664.84 686.959 665.615 695.232C665.819 697.406 665.914 699.759 666.013 702.192C666.37 710.955 666.768 720.741 672.412 726.828C676.609 731.355 683.668 729.7 686.773 724.979C689.673 720.566 689.548 715.442 689.085 710.392L688.926 708.757C688.406 703.598 687.77 698.447 687.132 693.301C685.82 682.722 684.365 672.158 682.741 661.622L682.449 659.702C679.786 641.949 677.747 623.041 665.125 609.265C659.076 602.663 651.615 597.344 644.957 591.381C638.812 585.879 632.888 580.042 627.33 573.948C621.354 567.395 615.425 560.707 610.099 553.611C607.441 550.069 604.906 546.433 602.492 542.721C600.399 539.502 598.68 535.746 595.836 533.129Z" transform="translate(2.000311 -20.99981)" fill="#000000" fill-rule="evenodd" stroke="none"></path></g><g transform="translate(225 0)"><g><g><path d="M340.529 155.003C338.376 136.088 341.162 96.5517 341.348 94.1497C342.529 78.9648 335.414 19.0018 321.964 24.5268C299.401 6.66576 269.351 2.72176 241.251 0.837757C182.883 -3.07624 120.791 5.90876 75.7204 45.1888C53.4316 65.5878 31.7323 95.2567 33.4765 126.149C13.2256 155.431 -15.3236 195.598 9.90814 229.831C18.4849 240.768 32.1161 244.841 42.8905 253.124C64.5622 270.604 78.1586 295.69 100.036 313.066C157.996 365.149 256.413 376.029 313.359 316.789C357.394 273.885 350.274 209.699 342.529 155.003C337.321 118.23 344.728 191.904 340.529 155.003Z" transform="translate(65.0005 149)" fill="#FFFFFF" stroke="none"></path><path d="M227.86 0.104592C211.919 -0.485408 195.89 1.47459 180.28 4.62459C149.299 10.8646 117.57 21.0746 89.509 35.7146C77.727 41.8646 66.8569 49.4596 57.054 58.2086C48.193 53.9716 34.213 53.6276 31.373 63.3436C30.558 66.1326 30.964 68.6606 32.134 70.8226C31.793 71.0166 31.456 71.2246 31.126 71.4456C28.8908 72.9424 27.6975 74.0315 26.3137 75.4062L25.221 76.5016C21.761 79.9726 21.434 86.3956 25.221 89.8226L25.739 90.2906L26.0576 90.5686C26.7029 91.1105 27.3954 91.5689 28.118 91.9486C14.847 112.287 5.83895 135.465 2.10995 159.685C-0.0810489 173.905 -0.720049 188.125 0.929951 202.435C1.72995 209.425 2.92995 216.885 5.37895 223.495C6.56995 226.725 8.24895 229.865 9.75895 232.965C11.4 236.345 14.089 238.815 16.299 241.835C16.539 242.145 16.919 242.305 17.289 242.315C16.62 243.695 16.009 245.095 15.44 246.485C12.169 254.475 9.64995 263.085 8.18995 271.595C5.43995 287.645 7.11995 305.695 19.339 317.705C24.209 322.485 31.749 326.315 39.16 327.335C36.789 329.775 34.879 332.675 33.35 336.015C30.49 342.245 35.259 350.675 42.839 348.355C44.28 347.915 45.709 347.355 47.11 346.735C49.289 351.065 53.95 353.995 58.95 353.245C61.86 352.805 63.959 351.675 65.4 350.085C69.009 358.065 73.799 365.315 79.8699 371.715C86.2889 378.495 93.379 384.605 99.7799 391.405C105.999 398.005 109.69 406.625 117.02 412.065C119.299 413.755 122.79 411.955 123.43 409.455C125.915 399.726 119.222 391.626 112.872 384.935L112.07 384.095C105.259 377.015 97.39 371.105 90.14 364.505C82.61 357.645 76.549 350.365 71.089 341.765C70.6174 341.025 70.1472 340.27 69.6753 339.507L67.53 336.025C67.419 335.515 67.299 335.015 67.16 334.525C67.049 332.555 66.39 330.685 65.1199 328.965C63.549 326.835 61.45 325.225 59.11 324.475C58.32 323.635 57.499 322.835 56.64 322.095C57.709 320.925 58.65 319.545 59.45 317.945C60.93 314.965 59.2 310.225 55.24 310.615C54.0504 310.729 52.8818 310.675 51.7142 310.621C50.4369 310.562 49.1608 310.503 47.86 310.665C47.5484 310.704 47.237 310.745 46.9256 310.786C44.7888 311.069 42.6557 311.351 40.499 311.055C36.07 310.425 32.1 308.025 29.22 304.665C22.009 296.265 21.249 284.185 22.759 273.705C23.4263 269.026 24.5669 264.428 25.7788 259.855L27.6525 252.851C28.7204 248.937 30.007 244.881 32.52 241.695C40.4061 231.694 53.9178 239.542 62.0054 245.562L62.74 246.115C62.81 246.165 62.87 246.185 62.94 246.185C63.37 246.885 63.83 247.575 64.31 248.235C66.959 251.815 70.169 254.995 73.4799 257.995L74.1553 258.611C74.6084 259.02 75.066 259.425 75.52 259.825C79.39 263.235 84.629 260.725 85.14 255.845C86.089 246.645 85.83 237.345 86.419 228.105C87.0089 218.855 88.07 209.635 89.6499 200.505C91.2299 191.385 93.27 182.355 95.759 173.455C97.009 168.995 98.379 164.585 99.839 160.195C100.95 156.815 101.78 151.335 104.709 148.985C107.36 146.845 112.35 146.485 115.6 145.795C120.14 144.825 124.709 143.965 129.259 142.995C137.77 141.165 146.27 139.175 154.65 136.815C162.95 134.475 171.18 131.715 179.15 128.395C176.86 132.235 174.589 136.085 172.339 139.945C169.259 145.235 173.299 150.885 178.89 151.355C184.629 151.835 190.44 151.405 196.039 150.045C197.23 149.755 198.32 149.425 199.33 149.035C205.479 148.594 211.755 147.191 217.533 145.767L220.23 145.095C231.209 142.335 241.759 138.565 252.16 134.115C253.325 133.617 254.491 133.109 255.657 132.592C259.971 131.29 264.22 129.777 268.386 128.056C283.831 130.393 299.585 129.487 314.759 125.755C321.31 124.145 328.43 122.125 335.2 119.325C338.57 125.075 343.74 129.735 349.509 133.115C350.14 138.105 350.49 143.145 350.72 148.145C351.459 164.085 352.299 180.025 353.169 195.955L353.449 201.113C355.094 232.07 356.102 263.076 356.339 294.065C356.56 322.305 354.83 350.185 339.53 374.745C326.64 395.465 306.53 411.955 283.18 419.355C268.839 423.895 253.64 425.355 238.669 423.905C231.36 423.195 224.12 421.525 217.129 419.285L216.124 418.968C209.105 416.802 202.421 415.732 195.1 414.845C190.259 414.255 189.089 420.535 191.52 423.485C196.66 429.705 202.15 433.855 209.789 436.675C216.69 439.215 224.009 440.825 231.28 441.875C246.28 444.035 261.41 443.795 276.23 440.405C303.73 434.125 328.039 417.605 344.97 395.195C363.56 370.585 369.549 341.165 369.94 310.855C370.361 278.421 368.752 245.831 366.61 213.451L366.16 206.755C365.2 192.745 364.18 178.685 362.589 164.705C365.22 164.965 367.98 164.145 370.22 161.895C374.584 157.531 375.617 150.814 376.136 144.748L376.27 143.075C376.69 137.485 375.839 131.765 374.31 126.395C372.202 119.041 368.668 112.849 363.676 107.664C370.362 100.458 373.963 90.2596 374.757 80.6316C375.33 73.6936 375.863 64.5746 368.207 61.3416C366.695 60.7026 365.13 60.4666 363.556 60.4996C363.96 58.0286 364.233 55.5276 364.386 52.9966C364.631 48.9726 360.502 44.5616 356.369 44.9776C355.113 45.1046 353.857 45.2396 352.601 45.3706C353.352 44.1696 354.106 42.9716 354.88 41.7856C358.134 36.8086 353.736 31.2596 348.597 30.8346C334.938 29.7056 321.418 26.9046 308.386 22.6616C295.294 18.3976 281.618 14.1066 269.184 8.17159C268.306 7.75259 267.338 8.06259 266.736 8.66659C256.273 1.69209 241.083 0.631691 229.089 0.152327L227.86 0.104592ZM50.9901 264.032C46.347 261.873 40.0585 258.949 35.2303 260.525C33.0202 261.245 32.3693 263.585 33.3693 265.305L33.2892 265.305L33.4965 265.636C34.4149 267.034 35.5933 267.982 36.8854 268.882L37.4893 269.295C35.8693 270.445 34.6292 272.105 34.0892 274.225C33.2202 277.595 34.6292 281.735 37.8293 283.425C39.1103 284.095 40.4992 284.465 41.9492 284.535C43.9947 284.625 45.7013 283.683 47.2494 282.505L47.7093 282.145C48.3903 281.605 48.9403 280.885 49.3792 280.105C53.1103 284.925 56.2493 290.615 62.8392 290.795C65.9893 290.885 69.5493 288.375 70.1992 285.185C70.2702 284.875 70.3293 284.565 70.3903 284.265C70.9993 281.275 70.5602 277.775 68.1102 275.635C63.1903 271.355 58.1103 267.305 52.1403 264.565C51.7701 264.395 51.3861 264.216 50.9901 264.032Z" transform="translate(48.00005 65.00051)" fill="#000000" fill-rule="evenodd" stroke="none"></path></g></g><g transform="translate(159 186)"><g><path d="M15.9252 11.6746C25.7472 1.65261 51.3592 -8.04539 58.0782 10.4616C59.3582 13.9866 56.6332 18.7396 52.9632 19.4706C49.6471 20.1305 46.5373 19.632 43.413 19.1311C40.8749 18.7243 38.3271 18.3158 35.6512 18.5256C30.8182 18.9066 25.7772 20.5216 21.9132 23.5156C11.2112 31.8076 8.85721 45.8326 1.40021 56.3866C1.03721 56.9006 0.332206 56.6846 0.265206 56.0786C-1.43279 40.7136 5.16721 22.6506 15.9252 11.6746ZM164.471 1.74571C157.919 -0.296292 150.538 -0.493292 144.02 1.80871C140.872 2.92071 138.005 4.40171 135.378 6.45171C132.79 8.47171 131.676 10.5267 129.743 13.0307C129.356 13.5327 129.994 14.2247 130.537 14.0637C140.738 11.0477 154.631 13.0867 163.104 19.4867C166.689 22.1957 169.646 25.8837 171.372 30.0517C173.985 36.3617 174.902 42.3067 182.45 44.4907C185.823 45.4677 189.549 44.4077 192.02 41.9617L192.635 41.3517L192.843 41.141C197.439 36.3352 195.245 29.5801 190.11 26.6157C189.161 24.8407 188.283 21.8597 187.448 20.4167C185.876 17.6937 183.916 15.1357 181.798 12.8177C177.13 7.71171 171.071 3.80371 164.471 1.74571ZM156.036 44.5815C172.692 43.8015 183.053 61.9875 179.223 76.8885C178.561 79.4595 175.685 81.9835 172.909 81.6945L172.209 81.6301C171.854 81.596 171.497 81.5511 171.169 81.4605C168.533 80.7305 166.17 77.9885 166.362 75.1465L166.413 74.3184C166.801 67.2793 166.038 59.1692 157.673 57.4645C150.578 56.0185 146.617 62.8475 146.533 69.1335C146.517 70.2495 145.263 71.0285 144.276 70.4285C139.147 67.3075 138.259 61.0985 140.218 55.7515C142.701 48.9765 148.915 44.9145 156.036 44.5815ZM63.4997 61.6149C57.6307 50.8989 44.5537 44.4379 32.4327 48.4819C25.8267 50.6849 20.5927 56.2799 17.8997 62.5709C15.8467 67.3649 14.8117 75.7409 20.5707 78.5239C21.3347 78.8929 22.0987 78.8039 22.7357 78.2449C28.1577 73.4889 27.9337 65.3249 35.6637 62.6269C42.2807 60.3169 49.5447 64.6709 51.3347 71.2699L51.4015 71.5005C52.9774 76.6056 60.0783 78.726 63.8697 74.5789C66.2937 71.9279 66.9157 69.7239 67.3287 66.2279C67.6147 63.7979 65.5587 62.2109 63.4997 61.6149ZM150.214 87.9682C148.264 65.8832 117.473 73.0662 105.201 80.0942C104.352 80.5802 104.675 82.0962 105.722 82.0162C108.163 81.8301 110.587 81.5015 113.011 81.173C117.151 80.612 121.287 80.0515 125.495 80.2022C129.964 80.3642 137.1 81.2762 138.777 86.2682C140.672 91.9112 134.562 96.2222 129.979 97.5692L129.713 97.6467C125.466 98.8763 117.455 100.78 113.649 98.1962C106.243 93.1662 98.3377 104.175 104.298 110.315C111.459 117.692 126.126 113.85 134.401 110.448L134.732 110.309C143.555 106.552 151.11 98.1312 150.214 87.9682ZM43.3465 121.477C56.0075 119.94 68.3817 122.402 80.7379 124.859C85.1111 125.729 89.4821 126.598 93.8627 127.29C102.711 128.686 111.57 129.728 120.523 130.116C122.324 130.194 124.127 130.24 125.929 130.277C126.096 128.691 126.984 127.234 128.908 126.361C132.852 124.574 136.008 123.768 140.338 123.94C144.301 124.097 148.278 124.504 152.181 125.218C159.268 126.518 166.386 129.466 171.57 134.589C183.567 146.442 181.741 165.481 172.471 178.391C153.319 205.069 118.364 206.307 88.4261 205.959L85.6634 205.923C82.6154 205.879 79.4206 205.891 76.1327 205.904L76.121 205.904C50.0058 206.004 18.0177 206.126 7.01977 178.584C2.46558 167.179 3.09822 153.96 8.67421 143.021C15.3249 129.974 29.3247 123.179 43.3465 121.477ZM81.4794 137.485L78.0689 137.102C77.7892 137.07 77.5094 137.038 77.2297 137.006C68.0368 135.957 58.8485 134.909 49.6549 135.539C48.2839 135.634 46.8919 135.783 45.4969 135.988C47.1713 142.03 47.0306 149.126 47.7301 155.107C48.0005 157.42 48.3418 159.714 48.7199 161.999L50.3634 161.922C60.5285 161.371 70.7036 161.032 80.8767 160.628C80.8759 158.718 80.8864 156.807 80.9169 154.895L80.9545 152.983C80.9884 151.554 80.9853 150.072 80.9822 148.563C80.9748 144.913 80.9669 141.102 81.4794 137.485ZM99.1274 138.664C108.873 138.652 119.127 138.311 129.049 136.71C129.463 137.009 129.9 137.27 130.361 137.459L130.753 137.601C130.23 142.195 129.86 146.809 129.523 151.424L129.029 158.345L127.265 158.439C114.764 159.074 102.261 159.687 89.7565 160.254L89.3311 156.653C88.8541 152.537 88.4152 148.417 88.0313 144.292C87.8407 142.25 87.709 140.155 87.4555 138.085C91.3441 138.43 95.2347 138.669 99.1274 138.664ZM22.3597 149.574C26.3002 142.485 33.6324 138.61 41.3798 136.776C39.4864 142.644 39.3956 149.948 39.2149 155.765L39.1128 158.814C39.0769 160.004 39.0488 161.196 39.0268 162.39C32.3981 162.629 25.7374 162.918 19.1896 163.68C18.992 158.767 20.0208 153.781 22.3597 149.574ZM133.358 138.428C133.904 144.953 134.207 151.505 134.609 158.042L142.85 157.602C144.224 157.527 145.597 157.45 146.97 157.371C148.454 157.286 150.056 157.099 151.708 156.906C156.003 156.406 160.64 155.865 164.453 156.955C164.856 152.155 163.484 147.479 159.152 144.255C151.547 138.591 141.864 140.608 133.358 138.428ZM162.585 164.278C159.359 165.039 155.772 165.031 152.353 165.023C150.839 165.02 149.358 165.017 147.956 165.08C143.678 165.275 139.399 165.444 135.121 165.617C135.322 168.538 135.519 171.457 135.733 174.376C136.008 178.148 136.034 182.135 136.756 185.891C145.366 182.953 153.08 178.241 158.868 170.706C160.31 168.829 161.601 166.626 162.585 164.278ZM128.251 165.905L128.495 165.895C128.318 168.393 128.136 170.89 127.967 173.389C127.697 177.412 127.761 181.732 127.061 185.787C126.359 186.373 125.83 187.229 125.649 188.501L125.629 188.717C115.677 190.492 105.17 190.681 95.4074 190.604C95.2976 190.367 95.1879 190.129 95.0362 189.893C94.6001 189.21 94.0144 188.74 93.3688 188.448L93.4296 188.028C93.5443 187.307 93.3051 186.307 93.0891 185.404C92.9875 184.979 92.891 184.576 92.8389 184.233C92.4547 181.703 92.0855 179.17 91.7413 176.635C91.3022 173.412 90.918 170.182 90.5419 166.953C103.117 166.73 115.683 166.39 128.251 165.905ZM21.2471 173.269C20.3321 171.062 19.7204 168.691 19.4061 166.269C25.8672 166.917 32.448 167.056 38.9849 167.117C39.0069 172.956 39.2992 178.802 40.1125 184.552C40.4388 186.865 41.731 188.215 43.3585 188.777C33.9787 186.944 25.1138 182.593 21.2471 173.269ZM80.9375 167.124C71.8788 167.278 62.8162 167.397 53.7594 167.286L49.6479 167.223C50.5161 171.881 51.461 176.523 52.2463 181.212C53.0656 186.099 48.7639 189.206 45.0409 189.081C45.459 189.149 45.8761 189.22 46.2942 189.279C55.9646 190.647 65.9434 190.576 75.817 190.505C77.8197 190.491 79.8181 190.477 81.8087 190.475C81.3529 187.814 81.3567 184.909 81.3601 182.337L81.3601 182.337C81.3614 181.325 81.3627 180.365 81.3358 179.491L81.3177 179.012C81.1371 175.047 81.0104 171.086 80.9375 167.124Z" transform="translate(50.00019 64.99949)" fill="#000000" fill-rule="evenodd" stroke="none"></path></g></g><g transform="translate(123 338)"></g><g transform="translate(47 241)"><g><path d="M316.813 3.10942C324.946 1.29242 394.509 -7.19658 396.465 14.9734C398.027 18.5324 397.593 37.5744 390.851 31.9324C373.772 44.8104 378.699 69.5144 366.274 85.8844C349.797 109.469 295.046 106.723 288.055 38.6864C281.114 35.9151 274.999 37.0109 268.751 38.1307C265.935 38.6352 263.093 39.1447 260.135 39.3074C269.752 111.531 152.497 141.921 143.304 53.8704C141.966 42.4674 138.517 43.4774 128.359 40.2094C126.53 39.8254 124.439 39.4604 122.435 38.8834C119.102 39.9934 117.307 38.4075 114.671 36.0782C106.929 29.2369 91.9299 15.9829 9.37509 45.7834C9.28609 50.3874 6.06709 52.6614 2.84509 50.4264C-18.3829 21.4114 85.4011 13.5744 108.135 14.3954C112.562 13.1234 116.74 12.4004 120.176 13.7484C138.328 -0.852581 224.917 -9.07258 250.63 19.5904C267.763 24.9805 282.206 18.1835 296.811 11.31C303.36 8.22787 309.942 5.13039 316.813 3.10942ZM368.291 12.4564C368.281 12.4694 368.269 12.4804 368.259 12.4934C368.182 12.4464 368.106 12.3984 368.027 12.3524C368.114 12.3884 368.206 12.4194 368.291 12.4564ZM351.985 88.3954C336.977 95.6234 316.039 84.9624 305.948 73.7954C302.275 69.7294 299.441 58.0964 300.854 50.7184C304.681 30.7374 319.061 18.7454 334.242 14.6504C355.286 8.97242 376.464 23.3564 373.995 40.3304C371.654 56.4174 368.107 79.7524 351.985 88.3954ZM210.244 96.4944C231.144 90.8474 248.631 71.7884 249.834 50.0134C250.295 40.7774 247.593 31.6544 240.983 25.3334C218.401 18.1694 173.188 13.7214 154.605 39.8164C149.88 46.4504 151.641 54.1844 152.39 56.7184C159.928 82.2194 176.57 105.89 210.244 96.4944Z" transform="translate(1.000312 17.99998)" fill="#000000" fill-rule="evenodd" stroke="none"></path></g></g></g></g></svg>